<svg xmlns="http://www.w3.org/2000/svg" fill="currentColor" viewBox="575 425 2425 2810"><path d="M2729.5 430.7c-26.9 6.9-271.5 89-451 151.3-20.9 7.3-81.4 27.7-134.5 45.5-218.1 73-317.7 107.1-374.5 128.4-9.9 3.7-22.9 8.2-29 10l-11 3.2-436.3-154C1053.2 530.3 856.4 461 855.9 461s-.9 118.1-.9 298.9v298.9l-14.7 5c-8.2 2.8-64.7 21.7-125.8 42.2-61 20.4-112.8 38.2-115.1 39.5-5.8 3.4-10.8 9.3-13.5 16.1l-2.4 5.9-.3 841.9c-.2 829.9-.2 841.9 1.7 846.2 2.4 5.4 10.3 14 15.2 16.4 7.6 3.9 11.9 4.4 20 2 60.4-17.6 681.6-224.1 1061.4-352.8 88.8-30.1 97.8-33.2 100.1-34.7 1.9-1.2 4.7-.5 25 6 30.3 9.7 1183.2 377.1 1186.2 378l2.2.6-.2-841.7-.3-841.7-114.7-36.5-114.8-36.6-.2-330-.3-330.1-2.6-5.6c-3.3-7-8.7-12.5-15.3-15.4-5.2-2.4-13.5-3.7-17.1-2.8zM2703 798.9v296l-2.7-.9c-1.6-.5-203-64.6-447.8-142.5-244.7-77.8-445.9-141.9-447-142.4-1.6-.7-1.2-1.1 3-2.5 2.8-.9 204.8-69.5 449-152.5s444.3-151 444.8-151c.4-.1.7 133.1.7 295.8zm-969 836.9v803.8l-543.2 180.8c-298.8 99.5-543.8 181-544.5 181.3-1.1.4-1.3-144.9-1.3-803.4v-803.9l543.8-181.1c299-99.6 544-181.1 544.5-181.2.4-.1.7 361.6.7 803.7zm658-328.3c41.5 12.6 75.8 23.1 76.2 23.4.8.7 285 1024.3 284.5 1024.8-.2.1-36.3-10.6-80.3-24l-79.9-24.2-28.5-104c-15.7-57.2-28.8-104.6-29-105.3-.4-1-328.2-101.3-330.8-101.2-.4 0-16.7 38.5-36.2 85.5-27.7 66.9-35.8 85.4-37 85.1-7.8-2.3-158.6-48-158.8-48.2-.3-.2 324.4-797.9 337.1-828.2 2.6-6.2 3.4-7.3 5.1-6.9 1.2.2 36.1 10.7 77.6 23.2z"/><path d="M1253.5 1327.6c-17.2 2.3-51.8 11.2-99.5 25.4-37 11-59.8 17.5-72.5 20.5-9.4 2.3-31.3 2.3-47 0-12.1-1.7-26.9-5.7-28-7.5-.3-.6-1.1-1-1.7-1-3.5 0 5.3 30.2 13.7 47.1 8.4 16.9 16.9 26.5 36.3 41.2 9 6.7 26.9 15.8 36.2 18.4 10.1 2.8 43.1 2.5 60-.5 27.6-4.9 45.5-10.6 67-21.3 22.1-11 35.3-20 48-32.8 8.4-8.5 11.5-12.5 15.7-20.1 8-14.6 9.8-25 6.8-40.4-2.6-13.9-8.3-22.6-17.3-26.4-5-2.1-12.7-3.2-17.7-2.6zM1463.5 1452.2c-1.6.6-12.2 4.6-23.5 9s-25.2 9.7-31 11.8c-15.7 5.6-30.4 12.5-58.8 27.7-56.2 30-61.4 32.3-96.1 42.3-13.7 3.9-37 11.9-109.1 37.3-65.7 23.1-187.2 60.2-216.6 66.1-7.1 1.4-21.9 4-32.9 5.6-11 1.7-23.3 3.8-27.4 4.6l-7.3 1.7.6 6.6c1 9.8 4.2 23.4 6.6 28 2.6 5.3 13.6 16.8 21.4 22.7 7.7 5.9 17.6 10.8 25.3 12.8 15.9 4.1 50.1 4.1 70.1 0 13.8-2.8 39.8-14.4 48.2-21.3l3.5-3 .6-13.3c.3-7.3.9-14.1 1.3-15 1.6-3.5 14.3-7.6 66.6-21.3 52.2-13.8 56.5-15 107.5-31.5 72.7-23.5 106.4-33.3 119.6-34.7l5.9-.6-1.6 3.9c-15.1 36.2-123.3 250.1-142.9 282.4-29.7 49.1-125.5 185.7-201.5 287.5-29.7 39.8-40 52.6-74 92.5-54.5 64-67.5 78.7-88.4 99.9l-15.1 15.4 15.5-.6c19.2-.7 37.5-3.7 44-7.3 21.3-11.6 67.4-56.6 117.6-114.9 12.4-14.4 57.9-68.5 74-88 50.6-61.3 110-141.5 164.2-221.8l19.4-28.8 2.6 1.7c7.4 4.7 26.8 19.4 67.2 50.9 56.1 43.7 65.6 50 124 82.7 47.1 26.3 58.6 32.1 93 46.8 45.6 19.4 69 26.3 73 21.5 5-6-10.3-71.7-19.5-84-1.8-2.4-5.8-4.5-19.1-9.9-68.5-27.9-181.9-75.7-208.9-88.1-21.8-10-54.1-24-79.5-34.5-9.6-3.9-17.8-7.5-18.2-7.9-.4-.3 2-4.9 5.4-10.1 34.3-53.4 72.4-116.5 98.5-163.5 9.8-17.6 85-167.1 97.1-193.1 3.4-7.2 6.6-15 7.1-17.5 1.7-7.2 3.4-41.8 2.4-46.9-.8-4.2-1.1-4.5-4.3-4.7-1.9-.1-4.8.3-6.5.9zM2324.7 1698.3c-32.3 78.2-58.7 142.7-58.7 143.3 0 1 215.8 67 216.6 66.2.4-.4-96.9-346.8-98.4-350-.5-1.1-19.3 43.2-59.5 140.5zM2291 2871.3c0 .4 39.5 65.8 66.1 109.4l2 3.2-4.8 2.7c-2.6 1.6-9.7 6-15.8 9.8-29.5 18.8-106.5 59-136.5 71.3-6.9 2.9-19.7 8.3-28.5 12.1-40.6 17.6-105.3 39.6-149.5 50.7-66.4 16.7-121.8 25.8-195.5 32-27 2.3-35 2.5-81.6 2.5-56.4 0-55.7 0-123.9-7.6-103.5-11.5-208.1-38-312.1-78.9-49.1-19.3-124.4-55.8-161.9-78.4-26-15.7-35.1-20.4-44.1-22.7-21.1-5.4-39.6 13.6-35 35.9 1.8 8.6 5.6 12.8 19.9 22.1 67.7 44.2 146.3 81.4 250.7 118.6 46.7 16.6 101.7 32.3 149.2 42.5 56.9 12.1 91.8 17.7 159.3 25.1 23.9 2.7 26.3 2.8 95 3.2 77.4.4 83.3.1 126.6-5.3 55.5-7 89.5-12.5 121.3-19.6 45.7-10.1 78.4-19.3 126.6-35.3 68.8-23 108.2-39.5 173.5-72.8 39.4-20.1 47.4-24.4 60.5-32.8 5-3.2 13.5-8 19-10.8 5.5-2.8 12.3-6.4 15-8l5-3 30.9 50.9c17 28 31.2 50.9 31.5 50.9.6 0 86.3-248.1 85.8-248.6-.1-.1-54-4.3-119.7-9.3-65.7-5-121.6-9.4-124.2-9.7-2.7-.3-4.8-.4-4.8-.1z"/></svg>